<?xml version="1.0" encoding="UTF-8"?>
<svg id="uuid-b0c0e3be-da82-4a13-b81a-979cbc293d7f" xmlns="http://www.w3.org/2000/svg" viewBox="0 0 1015 147.43">
  <defs>
    <style>
      .uuid-0fd30220-7357-4e3c-bb9b-43dc7be63ad1{fill:#e3e7f0;}
      .uuid-ad916858-b325-4d16-83d5-ccfb5d5425f5{fill:#eab308;}
    </style>
  </defs>
  <g id="uuid-61314a81-334f-4cc4-9b00-6b154f8c8d29">
    <g id="uuid-9a9c57a5-e4bb-4448-b8df-3d5f5754ec8a">
      <path class="uuid-0fd30220-7357-4e3c-bb9b-43dc7be63ad1" d="M199.53,25c28.2,0,36.52,15.23,36.52,30.6s-11.42,31.02-35.53,31.02c-3.95,0-9.87-.14-14.81-.56v33c0,3.24-2.68,5.92-5.92,5.92s-6.06-2.68-6.06-5.92V31.21c0-3.24,2.68-5.92,5.92-5.92,6.49-.14,15.37-.28,19.88-.28ZM185.71,74.64c4.79.42,9.45.7,14.38.7,14.52,0,23.27-7.47,23.27-19.88,0-11.7-7.05-19.18-22.7-19.18-3.95,0-10.29.14-14.95.28v38.07Z"/>
      <path class="uuid-0fd30220-7357-4e3c-bb9b-43dc7be63ad1" d="M264.52,101.99c0,8.6,2.12,12.55,7.47,12.55,2.4,0,4.79-.71,6.35-.71,1.83,0,4.65,1.27,4.65,4.51,0,6.35-8.18,6.63-13.25,6.63-10.43,0-16.5-5.64-16.5-17.91V30.64c0-2.96,2.4-5.36,5.64-5.36s5.64,2.4,5.64,5.36v71.35Z"/>
      <path class="uuid-0fd30220-7357-4e3c-bb9b-43dc7be63ad1" d="M313.31,85.21c4.94,0,11.56.99,15.79,4.09,0-11.84-1.83-20.02-14.38-20.02-4.65,0-8.32.85-12.69,2.54-.71.28-1.41.42-2.12.42-1.83,0-3.53-.99-4.37-2.82-.28-.71-.42-1.27-.42-1.97,0-1.97,1.13-3.81,2.82-4.51,6.49-2.68,12.27-3.81,17.49-3.81,18.05,0,24.39,9.45,24.39,25.95v34.97c0,2.68-2.26,4.94-5.36,4.94s-5.36-2.26-5.36-4.94v-4.23c-3.81,4.79-9.87,9.17-20.3,9.17-11.56,0-19.46-7.33-19.46-19.6,0-12.97,10.29-20.16,23.97-20.16ZM329.1,98.61c-3.95-2.82-8.74-4.23-14.24-4.23-6.77,0-13.54,3.1-13.54,10.43,0,6.06,4.09,10.01,11.42,10.01,8.32,0,13.11-4.37,16.36-8.18v-8.04Z"/>
      <path class="uuid-0fd30220-7357-4e3c-bb9b-43dc7be63ad1" d="M388.89,112.85c2.54,0,4.79,1.69,4.79,4.65,0,1.69-.85,3.24-2.96,4.51-3.67,2.26-8.18,3.1-13.54,3.1-14.24,0-19.88-9.02-19.88-25.24v-51.61c0-2.96,2.4-5.36,5.64-5.36s5.64,2.4,5.64,5.36v12.27h17.91c2.96,0,5.36,2.4,5.36,5.22,0,2.96-2.4,5.36-5.36,5.36h-17.91v27.64c0,10.01,3.24,15.79,11.28,15.79,3.67,0,6.91-1.69,9.02-1.69Z"/>
      <path class="uuid-0fd30220-7357-4e3c-bb9b-43dc7be63ad1" d="M462.49,91.28c-.14,2.26-2.54,4.51-4.79,4.51h-44.56c.99,11.99,9.73,19.04,22.14,19.04,6.34,0,11.14-1.27,15.51-3.81.99-.56,2.12-.85,3.1-.85,1.41,0,2.68.56,3.81,1.83.56.71.85,1.55.85,2.54,0,1.55-.56,3.1-1.69,3.81-7.19,5.08-14.52,7.05-22.42,7.05-20.59,0-33.98-13.11-33.98-33.14,0-18.47,11.84-33.14,32.71-33.14,16.36,0,29.47,11.56,29.47,29.05,0,1.13,0,2.12-.14,3.1ZM432.6,69.7c-11.56,0-18.89,7.19-20.16,16.92h38.49c-.56-10.43-7.33-16.92-18.33-16.92Z"/>
      <path class="uuid-0fd30220-7357-4e3c-bb9b-43dc7be63ad1" d="M491.39,119.62c0,2.96-2.4,5.36-5.64,5.36s-5.64-2.4-5.64-5.36V50.24c0-17.63,8.18-26.37,22.28-26.37,5.64,0,10.29,1.41,14.1,3.67,1.69.99,2.4,2.26,2.4,4.09,0,2.82-2.11,4.65-4.93,4.65-.99,0-1.97-.14-2.96-.56-2.26-.85-4.23-1.27-6.77-1.27-8.04,0-12.83,5.22-12.83,17.06v9.02h15.79c2.96,0,5.36,2.4,5.36,5.22,0,2.96-2.4,5.36-5.36,5.36h-15.79v48.51Z"/>
      <path class="uuid-0fd30220-7357-4e3c-bb9b-43dc7be63ad1" d="M554.7,59.13c20.3,0,33.84,14.1,33.84,33.14s-13.54,33.14-33.84,33.14-33.84-14.1-33.84-33.14,13.54-33.14,33.84-33.14ZM554.7,114.83c12.69,0,21.86-9.02,21.86-22.56s-9.17-22.56-21.86-22.56-21.86,9.17-21.86,22.56,9.17,22.56,21.86,22.56Z"/>
      <path class="uuid-0fd30220-7357-4e3c-bb9b-43dc7be63ad1" d="M615.89,119.34c0,3.1-2.54,5.64-5.64,5.64s-5.64-2.54-5.64-5.64v-53.86c0-3.1,2.54-5.64,5.64-5.64s5.64,2.54,5.64,5.64v2.54c3.24-4.79,7.9-8.6,15.93-8.6,2.26,0,4.09.42,5.78.85,2.26.71,4.09,2.12,4.09,4.51,0,.56-.14,1.13-.28,1.83-.85,2.82-2.68,3.95-5.64,3.95-.85,0-1.83-.14-2.82-.28-1.27-.28-2.54-.28-3.81-.28-7.33,0-10.86,4.37-13.25,9.02v40.33Z"/>
      <path class="uuid-0fd30220-7357-4e3c-bb9b-43dc7be63ad1" d="M684.84,59.41c9.87,0,16.78,4.37,19.18,11,4.51-6.49,12.69-11,22.28-11,11.7,0,20.45,5.64,20.45,22.98v37.23c0,2.96-2.4,5.36-5.64,5.36s-5.64-2.4-5.64-5.36v-34.12c0-10.43-4.51-15.51-13.68-15.51-7.61,0-13.68,3.95-16.64,9.17.14,1.13.14,3.1.14,4.51v35.96c0,2.96-2.4,5.36-5.64,5.36s-5.64-2.4-5.64-5.36v-36.52c0-7.76-4.65-13.11-13.54-13.11-7.33,0-13.4,3.95-16.64,8.6v41.03c0,2.96-2.4,5.36-5.64,5.36s-5.64-2.4-5.64-5.36v-54.43c0-2.96,2.4-5.36,5.64-5.36s5.64,2.4,5.64,5.36v3.38c4.65-5.5,12.83-9.17,21.01-9.17Z"/>
      <path class="uuid-0fd30220-7357-4e3c-bb9b-43dc7be63ad1" d="M824.86,91.28c-.14,2.26-2.54,4.51-4.79,4.51h-44.56c.99,11.99,9.73,19.04,22.14,19.04,6.34,0,11.14-1.27,15.51-3.81.99-.56,2.12-.85,3.1-.85,1.41,0,2.68.56,3.81,1.83.56.71.85,1.55.85,2.54,0,1.55-.56,3.1-1.69,3.81-7.19,5.08-14.52,7.05-22.42,7.05-20.59,0-33.98-13.11-33.98-33.14,0-18.47,11.84-33.14,32.71-33.14,16.36,0,29.47,11.56,29.47,29.05,0,1.13,0,2.12-.14,3.1ZM794.96,69.7c-11.56,0-18.89,7.19-20.16,16.92h38.49c-.56-10.43-7.33-16.92-18.33-16.92Z"/>
      <path class="uuid-0fd30220-7357-4e3c-bb9b-43dc7be63ad1" d="M933.14,94.1h-44.98l-11.28,26.93c-1.27,3.1-3.1,3.95-5.36,3.95-3.67,0-5.64-2.68-5.64-5.5,0-.85.28-1.69.56-2.54l37.79-87.56c1.27-2.82,3.53-4.79,6.91-4.79s5.64,2.12,6.77,4.79l37.65,87.14c.28.85.42,1.55.42,2.4,0,3.1-2.12,6.06-5.78,6.06-2.54,0-4.65-1.55-5.64-3.95l-11.42-26.93ZM910.72,40.65l-17.77,42.16h35.53l-17.77-42.16Z"/>
      <path class="uuid-0fd30220-7357-4e3c-bb9b-43dc7be63ad1" d="M982.92,24.58c3.24,0,5.92,2.68,5.92,5.78v88.69c0,3.24-2.68,5.92-5.92,5.92s-6.06-2.68-6.06-5.92V30.36c0-3.1,2.68-5.78,6.06-5.78Z"/></g><g id="uuid-c8a9b92c-b66b-4eea-a63f-5375ce004361">
      <rect class="uuid-ad916858-b325-4d16-83d5-ccfb5d5425f5" x="46.9" y="46.9" width="11.8" height="7.3" rx="1.5" ry="1.5"/>
      <path class="uuid-0fd30220-7357-4e3c-bb9b-43dc7be63ad1" d="M25,31.2v87.6c0,3.42,2.78,6.2,6.2,6.2h87.6c3.42,0,6.2-2.78,6.2-6.2V31.2c0-3.42-2.78-6.2-6.2-6.2H31.2c-3.42,0-6.2,2.78-6.2,6.2ZM115.3,117.7H36.1c-2.1,0-3.8-1.7-3.8-3.8V36.1c0-2.1,1.7-3.8,3.8-3.8h77.8c2.1,0,3.8,1.7,3.8,3.8v79.2c0,1.33-1.08,2.4-2.4,2.4Z"/>
    </g>
  </g>
</svg>
