<?xml version="1.0" encoding="UTF-8"?>
<svg id="uuid-22492e44-7036-4045-b1ff-98ace08d38b5" xmlns="http://www.w3.org/2000/svg" viewBox="0 0 100 100" fill="currentColor">
  <g>
    <rect x="21.9" y="21.9" width="11.8" height="7.3" rx="1.5" ry="1.5"/>
    <path d="M0,6.2v87.6c0,3.42,2.78,6.2,6.2,6.2h87.6c3.42,0,6.2-2.78,6.2-6.2V6.2c0-3.42-2.78-6.2-6.2-6.2H6.2C2.78,0,0,2.78,0,6.2ZM90.3,92.7H11.1c-2.1,0-3.8-1.7-3.8-3.8V11.1c0-2.1,1.7-3.8,3.8-3.8h77.8c2.1,0,3.8,1.7,3.8,3.8v79.2c0,1.33-1.08,2.4-2.4,2.4Z"/>
  </g>
</svg>
